# xmcd
#
# Track frame offsets: 
#        150
#        14262
#        29187
#        45500
#        59272
#        71490
#        83935
#        98205
#        112372
#        128395
#
# Disc length: 1882 seconds
#
# Revision: 1
# Processed by: cddbd v1.5.2PL0 Copyright (c) Steve Scherf et al.
# Submitted via: ExactAudioCopy v0.95b4
#
DISCID=8607580a
DTITLE=Banda Arkangel R-15 - Estos Si Son Corridos
DYEAR=2000
DGENRE=Latin
TTITLE0=Juana La Taquera
TTITLE1=Conchita La Viuda Alegre
TTITLE2=El Zapo Y El Kora
TTITLE3=El Melon
TTITLE4=Los Cañeros
TTITLE5=Tristes Fronteras
TTITLE6=Perro Que Ladra No Muerde
TTITLE7=El Violador
TTITLE8=El Fuereño
TTITLE9=El Prieto Crispin
EXTD=
EXTT0=
EXTT1=
EXTT2=
EXTT3=
EXTT4=
EXTT5=
EXTT6=
EXTT7=
EXTT8=
EXTT9=
PLAYORDER=
